# xmcd
# 
# Track frame offsets:
#     150
#     17687
#     32010
#     44540
#     59950
#     79285
#     92557
#     108515
#     122005
#     140150
#     159340
#     171002
# 
# Disc length: 2501
# 
# Revision: 2
# Processed by: cddbd v1.5.2PL0 Copyright (c) Steve Scherf et al.
# Submitted via: BonkEnc v1.0.8
# 
DISCID=a309c30c
DTITLE=Various Artist - Midnight sax moods
DYEAR=1997
DGENRE=Jazz
TTITLE0=Rice - John - Can you feel the love tonight
TTITLE1=Cole Porter - Mind if i make love to you
TTITLE2=Schwartz - Deitz  - Dancing in the dark
TTITLE3=Lennon - McCartney - The long and winding road
TTITLE4=Musker - Lammers - Mercury - Taylor - Deacon - May - Too much love will kill you
TTITLE5=Livingston - Evans  - Mona Lisa
TTITLE6=Cross - Cory - I left my heart in San Francisco
TTITLE7=Schroeder - Gold - It's now or never
TTITLE8=Gordon - Unforgettable
TTITLE9=Gershwin - Gershwin  - The man i love
TTITLE10=Cole Porter  - Little one
TTITLE11=Rice - John - Circle of love
EXTD=
EXTT0=
EXTT1=
EXTT2=
EXTT3=
EXTT4=
EXTT5=
EXTT6=
EXTT7=
EXTT8=
EXTT9=
EXTT10=
EXTT11=
PLAYORDER=
